<svg width="22" height="22" viewBox="0 0 22 22" fill="none" xmlns="http://www.w3.org/2000/svg">
<path fill-rule="evenodd" clip-rule="evenodd" d="M11 22C17.0751 22 22 17.0751 22 11C22 4.92487 17.0751 0 11 0C4.92487 0 0 4.92487 0 11C0 17.0751 4.92487 22 11 22ZM12.008 15.76C11.784 15.984 11.496 16.1173 11.144 16.16L11.704 17.504C12.5787 17.4187 13.1973 17.1413 13.56 16.672C13.9227 16.2027 14.104 15.5467 14.104 14.704V6H12.344V11.712C12.216 11.84 12.104 11.9413 12.008 12.016C11.9227 12.0907 11.7627 12.1653 11.528 12.24C11.304 12.3147 11.016 12.352 10.664 12.352C10.0347 12.352 9.56 12.1973 9.24 11.888C8.92 11.5787 8.76 11.0933 8.76 10.432V6H7V10.592C7 11.296 7.14933 11.9147 7.448 12.448C7.75733 12.9707 8.18933 13.376 8.744 13.664C9.29867 13.9413 9.93867 14.08 10.664 14.08C11.2507 14.08 11.8107 13.9467 12.344 13.68V14.576C12.344 15.1413 12.232 15.536 12.008 15.76Z" fill="white"/>
</svg>
